<svg width="24" height="24" viewBox="0 0 24 24" fill="none" xmlns="http://www.w3.org/2000/svg">
<g clip-path="url(#clip0_17_471)">
<path d="M13.5 1.5C13.5 0.670312 12.8297 0 12 0C11.1703 0 10.5 0.670312 10.5 1.5V12C10.5 12.8297 11.1703 13.5 12 13.5C12.8297 13.5 13.5 12.8297 13.5 12V1.5ZM6.72656 5.65312C7.36406 5.12344 7.44844 4.17656 6.91875 3.53906C6.38906 2.90156 5.44219 2.81719 4.80469 3.34688C2.32969 5.40938 0.75 8.52188 0.75 12C0.75 18.2109 5.78906 23.25 12 23.25C18.2109 23.25 23.25 18.2109 23.25 12C23.25 8.52188 21.6656 5.40938 19.1906 3.34688C18.5531 2.81719 17.6062 2.90625 17.0766 3.53906C16.5469 4.17188 16.6359 5.12344 17.2687 5.65312C19.0922 7.16719 20.2453 9.45 20.2453 12C20.2453 16.5562 16.5516 20.25 11.9953 20.25C7.43906 20.25 3.74531 16.5562 3.74531 12C3.74531 9.45 4.90312 7.16719 6.72187 5.65312H6.72656Z" fill="#FF4B26"/>
</g>
<defs>
<clipPath id="clip0_17_471">
<rect width="24" height="24" fill="white"/>
</clipPath>
</defs>
</svg>
