<svg width="24" height="25" viewBox="0 0 24 25" fill="none" xmlns="http://www.w3.org/2000/svg">
<g clip-path="url(#clip0_2_87)">
<path d="M23.9873 12.474C23.9873 11.4707 23.9057 10.7385 23.729 9.97921H12.239V14.5078H18.9834C18.8474 15.6332 18.1132 17.328 16.4814 18.4669L16.4586 18.6185L20.0915 21.4248L20.3432 21.4499C22.6547 19.3211 23.9873 16.1891 23.9873 12.474Z" fill="#4285F4"/>
<path d="M12.2391 24.4058C15.5433 24.4058 18.3172 23.321 20.3433 21.4499L16.4815 18.4669C15.4481 19.1856 14.0611 19.6872 12.2391 19.6872C9.0029 19.6872 6.2562 17.5586 5.27708 14.6163L5.13356 14.6285L1.356 17.5436L1.3066 17.6806C3.31903 21.6668 7.45271 24.4058 12.2391 24.4058Z" fill="#34A853"/>
<path d="M5.27704 14.6163C5.01869 13.857 4.86918 13.0434 4.86918 12.2029C4.86918 11.3622 5.01869 10.5487 5.26345 9.78939L5.2566 9.62768L1.43172 6.66573L1.30657 6.72508C0.47716 8.37926 0.00123978 10.2368 0.00123978 12.2029C0.00123978 14.1689 0.47716 16.0263 1.30657 17.6805L5.27704 14.6163Z" fill="#FBBC05"/>
<path d="M12.2391 4.71842C14.537 4.71842 16.0871 5.7082 16.971 6.53534L20.4248 3.17276C18.3036 1.20675 15.5432 2.28882e-05 12.2391 2.28882e-05C7.45269 2.28882e-05 3.31902 2.73886 1.3066 6.72509L5.26348 9.7894C6.25619 6.84716 9.00287 4.71842 12.2391 4.71842Z" fill="#EB4335"/>
</g>
<defs>
<clipPath id="clip0_2_87">
<rect width="24" height="24.4898" fill="white"/>
</clipPath>
</defs>
</svg>
