<svg width="32" height="33" viewBox="0 0 32 33" fill="none" xmlns="http://www.w3.org/2000/svg">
<path d="M26.0013 13.0006C26.0013 15.8695 25.07 18.5197 23.5011 20.6698L31.414 28.5889C32.1953 29.3702 32.1953 30.639 31.414 31.4203C30.6327 32.2016 29.3639 32.2016 28.5826 31.4203L20.6698 23.5012C18.5197 25.0762 15.8695 26.0013 13.0006 26.0013C5.81903 26.0013 0 20.1822 0 13.0006C0 5.81904 5.81903 0 13.0006 0C20.1822 0 26.0013 5.81904 26.0013 13.0006ZM13.0006 22.0011C17.9696 22.0011 22.0011 17.9696 22.0011 13.0006C22.0011 8.03164 17.9696 4.0002 13.0006 4.0002C8.03164 4.0002 4.0002 8.03164 4.0002 13.0006C4.0002 17.9696 8.03164 22.0011 13.0006 22.0011Z" fill="#FF4B26"/>
<g clip-path="url(#clip0_20_314)">
<path d="M10.4313 10.4994L9.88961 12.0475H15.9868L15.4452 10.4994C15.3518 10.2337 15.1007 10.0552 14.8184 10.0552H11.058C10.7758 10.0552 10.5246 10.2337 10.4313 10.4994ZM8.44728 12.1471L9.17778 10.0615C9.45794 9.26248 10.2113 8.72705 11.058 8.72705H14.8184C15.6652 8.72705 16.4185 9.26248 16.6987 10.0615L17.4292 12.1471C17.9106 12.3464 18.251 12.8216 18.251 13.3757V16.3641V17.3603C18.251 17.7276 17.9542 18.0244 17.5869 18.0244H16.9228C16.5555 18.0244 16.2587 17.7276 16.2587 17.3603V16.3641H9.61774V17.3603C9.61774 17.7276 9.32097 18.0244 8.95365 18.0244H8.28955C7.92223 18.0244 7.62546 17.7276 7.62546 17.3603V16.3641V13.3757C7.62546 12.8216 7.96581 12.3464 8.44728 12.1471ZM10.2818 14.0398C10.2818 13.6725 9.98507 13.3757 9.61774 13.3757C9.25041 13.3757 8.95365 13.6725 8.95365 14.0398C8.95365 14.4071 9.25041 14.7039 9.61774 14.7039C9.98507 14.7039 10.2818 14.4071 10.2818 14.0398ZM16.2587 14.7039C16.626 14.7039 16.9228 14.4071 16.9228 14.0398C16.9228 13.6725 16.626 13.3757 16.2587 13.3757C15.8914 13.3757 15.5946 13.6725 15.5946 14.0398C15.5946 14.4071 15.8914 14.7039 16.2587 14.7039Z" fill="#FF4B26"/>
</g>
<defs>
<clipPath id="clip0_20_314">
<rect width="10.6255" height="10.6255" fill="white" transform="translate(7.62546 8.06296)"/>
</clipPath>
</defs>
</svg>
